<?xml version="1.0" encoding="UTF-8" standalone="no"?>
<svg width="50px" height="44px" viewBox="0 0 50 44" version="1.1" xmlns="http://www.w3.org/2000/svg" xmlns:xlink="http://www.w3.org/1999/xlink">
    <!-- Generator: Sketch 3.7.1 (28215) - http://www.bohemiancoding.com/sketch -->
    <title>blue</title>
    <desc>Created with Sketch.</desc>
    <defs></defs>
    <g id="Elements" stroke="none" stroke-width="1" fill="none" fill-rule="evenodd">
        <g id="UPCOMING-INTERVIEWS" transform="translate(-632.000000, -1251.000000)" fill="#4080FF">
            <g id="Tab-Bar-4-items" transform="translate(0.000000, 1237.000000)">
                <g id="Alerts" transform="translate(625.000000, 14.000000)">
                    <path d="M34.9425766,1.73587763 C34.3145287,0.648594073 33.1905952,0 31.9356101,0 C30.680625,0 29.5566914,0.648594073 28.9286435,1.73587763 L7.47061942,38.9017618 C6.84312686,39.9890454 6.84312686,41.2318138 7.47061942,42.3185421 C8.09811197,43.4058256 9.22260084,44 10.4775859,44 L53.3936342,44 C54.6486193,44 55.7731082,43.4058256 56.4006007,42.3190974 C57.0280933,41.2318138 57.0280933,39.9618355 56.4006007,38.874552 L34.9425766,1.73587763 L34.9425766,1.73587763 Z M53.4874891,40.4941814 C53.3834346,40.6736224 53.0744564,41.0394059 52.4517219,41.0394059 L11.4223859,41.0394059 C10.7996514,41.0394059 10.4906732,40.6736224 10.3866187,40.4941814 C10.2825641,40.3147405 10.074986,39.8645454 10.3866187,39.3246298 L30.9018176,3.80540558 C31.2129194,3.26549001 31.7300066,3.21399364 31.9370539,3.21399364 C32.1441012,3.21399364 32.6611884,3.27557693 32.9728211,3.81496161 L53.4874891,39.3225063 C53.7991218,39.8624218 53.5910128,40.3142096 53.4874891,40.4941814 L53.4874891,40.4941814 Z M29.2121258,34.1082825 C29.2121258,32.3549813 30.3266689,31.0969761 31.9219953,31.0969761 C33.5173217,31.0969761 34.5677134,32.3549813 34.5994366,34.1082825 C34.5994366,35.8267037 33.5462251,37.1172635 31.9219953,37.1172635 C30.2949457,37.1172635 29.2121258,35.8267037 29.2121258,34.1082825 L29.2121258,34.1082825 Z M29.9051023,29.4254288 L29.2121258,14.4378818 L33.9966951,14.4378818 L33.3354418,29.4254288 L29.9051023,29.4254288 L29.9051023,29.4254288 Z" id="blue"></path>
                </g>
            </g>
        </g>
    </g>
</svg>