<?xml version="1.0" encoding="UTF-8" standalone="no"?>
<svg width="36px" height="42px" viewBox="0 0 36 42" version="1.1" xmlns="http://www.w3.org/2000/svg" xmlns:xlink="http://www.w3.org/1999/xlink">
    <!-- Generator: Sketch 3.7.1 (28215) - http://www.bohemiancoding.com/sketch -->
    <title>Path</title>
    <desc>Created with Sketch.</desc>
    <defs></defs>
    <g id="Elements" stroke="none" stroke-width="1" fill="none" fill-rule="evenodd">
        <g id="INTERVIEW-DETAILS" transform="translate(-35.000000, -724.000000)" fill="#4267B2">
            <g id="Interview-Details" transform="translate(0.000000, 236.000000)">
                <path d="M43,496.5 C43,496.3 43,496.2 43.1,496 L43,496 L43,490 L43.1,490 C43,489.8 43,489.7 43,489.5 C43,488.7 43.7,488 44.5,488 C45.3,488 46,488.7 46,489.5 C46,489.7 46,489.8 45.9,490 L46,490 L46,496 L45.9,496 C46,496.2 46,496.3 46,496.5 C46,497.3 45.3,498 44.5,498 C43.7,498 43,497.3 43,496.5 Z M61.5,498 C60.7,498 60,497.3 60,496.5 C60,496.3 60,496.2 60.1,496 L60,496 L60,490 L60.1,490 C60,489.8 60,489.7 60,489.5 C60,488.7 60.7,488 61.5,488 C62.3,488 63,488.7 63,489.5 C63,489.7 63,489.8 62.9,490 L63,490 L63,496 L62.9,496 C63,496.2 63,496.3 63,496.5 C63,497.3 62.3,498 61.5,498 Z M66,494 C68.8,494 71,496.2 71,499 L71,525 C71,527.8 68.8,530 66,530 L40,530 C37.2,530 35,527.8 35,525 L35,499 C35,496.2 37.2,494 40,494 L41,494 L41,496 L41.1,496 C41.1,496.2 41,496.3 41,496.5 C41,498.4 42.6,500 44.5,500 C46.4,500 48,498.4 48,496.5 C48,496.3 48,496.2 47.9,496 L48,496 L48,494 L58,494 L58,496 L58.1,496 C58.1,496.2 58,496.3 58,496.5 C58,498.4 59.6,500 61.5,500 C63.4,500 65,498.4 65,496.5 C65,496.3 65,496.2 64.9,496 L65,496 L65,494 L66,494 Z M38,505 L38,524.8 C38,526 39,527 40.3,527 L65.8,527 C67,527 68,526 68,524.8 L68,505 L38,505 Z M61.9,521 L61.9,524.2 C61.9,524.6 61.6,524.9 61.2,524.9 L60.7,524.9 C60.3,524.9 60,524.6 60,524.2 L60,521 L53.9,521 L53.9,524.2 C53.9,524.6 53.6,524.9 53.2,524.9 L52.7,524.9 C52.3,524.9 52,524.6 52,524.2 L52,521 L46,521 L46,524.2 C46,524.6 45.7,524.9 45.3,524.9 L44.8,524.9 C44.4,524.9 44.1,524.6 44.1,524.2 L44.1,521 L40.9,521 C40.5,521 40.1,520.7 40.1,520.2 L40.1,519.8 C40.1,519.4 40.4,519 40.9,519 L44.1,519 L44.1,513 L40.9,513 C40.5,513 40.1,512.7 40.1,512.2 L40.1,511.8 C40.1,511.4 40.4,511 40.9,511 L44.1,511 L44.1,507.8 C44.1,507.4 44.4,507 44.8,507 L45.3,507 C45.7,507 46,507.3 46,507.8 L46,511 L52,511 L52,507.8 C52,507.4 52.3,507 52.7,507 L53.2,507 C53.6,507 53.9,507.3 53.9,507.8 L53.9,511 L60,511 L60,507.8 C60,507.4 60.3,507 60.7,507 L61.2,507 C61.6,507 61.9,507.3 61.9,507.8 L61.9,511 L65,511 C65.4,511 65.8,511.3 65.8,511.8 L65.8,512.2 C65.8,512.6 65.5,513 65,513 L61.9,513 L61.9,519 L65,519 C65.4,519 65.8,519.3 65.8,519.8 L65.8,520.2 C65.8,520.7 65.5,521 65,521 L61.9,521 Z M52,513 L46,513 L46,519 L52,519 L52,513 Z M60,513 L54,513 L54,519 L60,519 L60,513 Z" id="Path"></path>
            </g>
        </g>
    </g>
</svg>