<?xml version="1.0" encoding="UTF-8" standalone="no"?>
<svg width="85px" height="64px" viewBox="0 0 85 64" version="1.1" xmlns="http://www.w3.org/2000/svg" xmlns:xlink="http://www.w3.org/1999/xlink">
    <!-- Generator: Sketch 3.7.1 (28215) - http://www.bohemiancoding.com/sketch -->
    <title>Shape Copy</title>
    <desc>Created with Sketch.</desc>
    <defs></defs>
    <g id="Elements" stroke="none" stroke-width="1" fill="none" fill-rule="evenodd">
        <g id="CAMERA-ACCESS---select-pic" transform="translate(-78.000000, -218.000000)" fill="#9B9B9B">
            <path d="M85.7272727,227.35 C85.7272727,227.35 78,227.35 78,235.121429 L78,273.978571 C78,281.75 85.7272727,281.75 85.7272727,281.75 L155.272727,281.75 C155.272727,281.75 163,281.75 163,273.978571 L163,235.121429 C163,227.35 155.272727,227.35 155.272727,227.35 L85.7272727,227.35 L85.7272727,227.35 Z M86.1175,231.6 C86.1175,231.6 82.25,231.6 82.25,235.495833 L82.25,273.604167 C82.25,277.5 86.1175,277.5 86.1175,277.5 L154.8825,277.5 C154.8825,277.5 158.75,277.5 158.75,273.604167 L158.75,235.495833 C158.75,231.6 154.8825,231.6 154.8825,231.6 L86.1175,231.6 L86.1175,231.6 Z M120.925,272.4 C130.548562,272.4 138.35,264.598562 138.35,254.975 C138.35,245.351438 130.548562,237.55 120.925,237.55 C111.301438,237.55 103.5,245.351438 103.5,254.975 C103.5,264.598562 111.301438,272.4 120.925,272.4 L120.925,272.4 Z M120.925,268.15 C128.201352,268.15 134.1,262.251352 134.1,254.975 C134.1,247.698648 128.201352,241.8 120.925,241.8 C113.648648,241.8 107.75,247.698648 107.75,254.975 C107.75,262.251352 113.648648,268.15 120.925,268.15 L120.925,268.15 Z M140.475,240.95 C142.118047,240.95 143.45,239.618047 143.45,237.975 C143.45,236.331953 142.118047,235 140.475,235 C138.831953,235 137.5,236.331953 137.5,237.975 C137.5,239.618047 138.831953,240.95 140.475,240.95 L140.475,240.95 Z M107.372222,218 L103.5,225.65 L108.147815,225.65 L109.847919,222.151636 L132.065582,222.151636 L133.805841,225.65 L138.35,225.65 L134.477778,218 L107.372222,218 L107.372222,218 Z M92.4479129,221.4 C91.9796236,221.4 91.6,221.777159 91.6,222.249836 L91.6,224.800164 C91.6,225.269515 91.9793647,225.65 92.4479129,225.65 L98.4020871,225.65 C98.8703764,225.65 99.25,225.272841 99.25,224.800164 L99.25,222.249836 C99.25,221.780485 98.8706353,221.4 98.4020871,221.4 L92.4479129,221.4 L92.4479129,221.4 Z" id="Shape-Copy"></path>
        </g>
    </g>
</svg>