<?xml version="1.0" encoding="UTF-8" standalone="no"?>
<svg width="50px" height="38px" viewBox="0 0 50 38" version="1.1" xmlns="http://www.w3.org/2000/svg" xmlns:xlink="http://www.w3.org/1999/xlink">
    <!-- Generator: Sketch 3.7.1 (28215) - http://www.bohemiancoding.com/sketch -->
    <title>blue</title>
    <desc>Created with Sketch.</desc>
    <defs></defs>
    <g id="Elements" stroke="none" stroke-width="1" fill="none" fill-rule="evenodd">
        <g id="UPCOMING-INTERVIEWS" transform="translate(-68.000000, -1254.000000)" fill="#4080FF">
            <g id="Tab-Bar-4-items" transform="translate(0.000000, 1237.000000)">
                <g id="Code-Pics" transform="translate(39.000000, 17.000000)">
                    <path d="M33.5454545,5.5 C33.5454545,5.5 29,5.5 29,10.0714286 L29,32.9285714 C29,37.5 33.5454545,37.5 33.5454545,37.5 L74.4545454,37.5 C74.4545454,37.5 79,37.5 79,32.9285714 L79,10.0714286 C79,5.5 74.4545454,5.5 74.4545454,5.5 L33.5454545,5.5 L33.5454545,5.5 Z M33.775,8 C33.775,8 31.5,8 31.5,10.2916667 L31.5,32.7083333 C31.5,35 33.775,35 33.775,35 L74.225,35 C74.225,35 76.5,35 76.5,32.7083333 L76.5,10.2916667 C76.5,8 74.225,8 74.225,8 L33.775,8 L33.775,8 Z M54.25,32 C59.910919,32 64.5,27.4109189 64.5,21.75 C64.5,16.089081 59.910919,11.5 54.25,11.5 C48.5890811,11.5 44,16.089081 44,21.75 C44,27.4109189 48.5890811,32 54.25,32 L54.25,32 Z M54.25,29.5 C58.530207,29.5 62,26.030207 62,21.75 C62,17.469793 58.530207,14 54.25,14 C49.969793,14 46.5,17.469793 46.5,21.75 C46.5,26.030207 49.969793,29.5 54.25,29.5 L54.25,29.5 Z M65.75,13.5 C66.7164983,13.5 67.5,12.7164984 67.5,11.75 C67.5,10.7835016 66.7164983,10 65.75,10 C64.7835017,10 64,10.7835016 64,11.75 C64,12.7164984 64.7835017,13.5 65.75,13.5 L65.75,13.5 Z M46.2777778,0 L44,4.5 L46.7340088,4.5 L47.7340698,2.44213867 L60.8032837,2.44213867 L61.8269654,4.5 L64.5,4.5 L62.2222222,0 L46.2777778,0 L46.2777778,0 Z M37.4987723,2 C37.223308,2 37,2.22185832 37,2.49990375 L37,4.00009626 C37,4.27618547 37.2231557,4.5 37.4987723,4.5 L41.0012277,4.5 C41.276692,4.5 41.5,4.27814168 41.5,4.00009626 L41.5,2.49990375 C41.5,2.22381453 41.2768443,2 41.0012277,2 L37.4987723,2 L37.4987723,2 Z" id="blue"></path>
                </g>
            </g>
        </g>
    </g>
</svg>