<?xml version="1.0" encoding="UTF-8" standalone="no"?>
<svg width="50px" height="38px" viewBox="0 0 50 38" version="1.1" xmlns="http://www.w3.org/2000/svg" xmlns:xlink="http://www.w3.org/1999/xlink">
    <!-- Generator: Sketch 3.7.1 (28215) - http://www.bohemiancoding.com/sketch -->
    <title>Shape</title>
    <desc>Created with Sketch.</desc>
    <defs></defs>
    <g id="Elements" stroke="none" stroke-width="1" fill="none" fill-rule="evenodd">
        <g id="UPCOMING-INTERVIEWS" transform="translate(-50.000000, -1252.000000)" fill="#90949C">
            <g id="Tab-Bar" transform="translate(0.000000, 1235.000000)">
                <g id="Code-Pics" transform="translate(26.000000, 17.000000)">
                    <path d="M28.5454545,5.5 C28.5454545,5.5 24,5.5 24,10.0714286 L24,32.9285714 C24,37.5 28.5454545,37.5 28.5454545,37.5 L69.4545454,37.5 C69.4545454,37.5 74,37.5 74,32.9285714 L74,10.0714286 C74,5.5 69.4545454,5.5 69.4545454,5.5 L28.5454545,5.5 L28.5454545,5.5 Z M28.775,8 C28.775,8 26.5,8 26.5,10.2916667 L26.5,32.7083333 C26.5,35 28.775,35 28.775,35 L69.225,35 C69.225,35 71.5,35 71.5,32.7083333 L71.5,10.2916667 C71.5,8 69.225,8 69.225,8 L28.775,8 L28.775,8 Z M49.25,32 C54.910919,32 59.5,27.4109189 59.5,21.75 C59.5,16.089081 54.910919,11.5 49.25,11.5 C43.5890811,11.5 39,16.089081 39,21.75 C39,27.4109189 43.5890811,32 49.25,32 L49.25,32 Z M49.25,29.5 C53.530207,29.5 57,26.030207 57,21.75 C57,17.469793 53.530207,14 49.25,14 C44.969793,14 41.5,17.469793 41.5,21.75 C41.5,26.030207 44.969793,29.5 49.25,29.5 L49.25,29.5 Z M60.75,13.5 C61.7164984,13.5 62.5,12.7164984 62.5,11.75 C62.5,10.7835016 61.7164984,10 60.75,10 C59.7835016,10 59,10.7835016 59,11.75 C59,12.7164984 59.7835016,13.5 60.75,13.5 L60.75,13.5 Z M41.2777778,0 L39,4.5 L41.7340088,4.5 L42.7340698,2.44213867 L55.8032837,2.44213867 L56.8269654,4.5 L59.5,4.5 L57.2222222,0 L41.2777778,0 L41.2777778,0 Z M32.4987723,2 C32.223308,2 32,2.22185832 32,2.49990375 L32,4.00009626 C32,4.27618547 32.2231557,4.5 32.4987723,4.5 L36.0012277,4.5 C36.276692,4.5 36.5,4.27814168 36.5,4.00009626 L36.5,2.49990375 C36.5,2.22381453 36.2768443,2 36.0012277,2 L32.4987723,2 L32.4987723,2 Z" id="Shape"></path>
                </g>
            </g>
        </g>
    </g>
</svg>