<?xml version="1.0" encoding="UTF-8" standalone="no"?>
<svg width="40px" height="42px" viewBox="0 0 40 42" version="1.1" xmlns="http://www.w3.org/2000/svg" xmlns:xlink="http://www.w3.org/1999/xlink">
    <!-- Generator: Sketch 3.7.1 (28215) - http://www.bohemiancoding.com/sketch -->
    <title>Path</title>
    <desc>Created with Sketch.</desc>
    <defs></defs>
    <g id="Elements" stroke="none" stroke-width="1" fill="none" fill-rule="evenodd">
        <g id="INTERVIEW-DETAILS" transform="translate(-32.000000, -521.000000)" fill="#4267B2">
            <g id="Interview-Details" transform="translate(0.000000, 236.000000)">
                <path d="M66.8335526,327 L51.875,327 L51.875,327 L37.9625,327 C34.0921053,327 32,325.8 32,322.7 L32,322.7 L32,320.7 C32.5230263,314.6 35.8703947,314.3 45.1802632,309.6 C46.6447368,308.8 46.6447368,307.7 46.9585526,307 C47.1677632,306.5 47.2723684,305.2 47.2723684,304 C47.1677632,303.9 47.0631579,303.7 46.9585526,303.6 C46.3309211,302.8 46.0171053,301.7 45.7032895,300.2 L45.7032895,300.2 C45.3894737,300.3 45.1802632,300.1 44.9710526,299.8 C44.8664474,299.6 44.5526316,298.7 44.4480263,298.1 C44.3434211,297.5 44.2388158,297.2 44.2388158,296.8 C44.2388158,296.3 44.4480263,295.8 44.6572368,295.7 C44.8664474,295.6 45.0756579,295.6 45.1802632,295.7 C45.0756579,294.6 45.0756579,293.6 45.0756579,292.7 C44.9710526,288 45.4940789,286.6 47.9,286.4 C48.9460526,285.6 50.3059211,285 51.9796053,285 C59.9296053,285 59.5111842,291.6 59.5111842,291.8 C59.5111842,291.9 59.3019737,292.1 58.7789474,292.3 C58.7789474,293.3 58.6743421,294.4 58.5697368,295.8 L58.9881579,295.8 C59.3019737,295.9 59.5111842,296.4 59.4065789,296.9 C59.4065789,297.3 59.3019737,297.6 59.1973684,298.2 C59.0927632,298.9 58.7789474,299.8 58.6743421,299.9 C58.5697368,300.2 58.3605263,300.3 58.0467105,300.3 C57.7328947,302 57.3144737,303.2 56.6868421,304 C56.7914474,305.1 56.8960526,306.5 57.1052632,307 C57.3144737,307.7 57.3144737,308.8 58.8835526,309.6 C68.1934211,314.3 71.0177632,314 71.6453947,320.6 C71.6453947,321.1 71.75,321.8 71.75,322.6 L71.75,322.6 C71.6453947,325.8 70.7039474,327 66.8335526,327 L66.8335526,327 Z" id="Path"></path>
            </g>
        </g>
    </g>
</svg>