<?xml version="1.0" encoding="utf-8"?>
<!-- Generator: Adobe Illustrator 19.0.1, SVG Export Plug-In . SVG Version: 6.00 Build 0)  -->
<svg version="1.1" id="Layer_1" xmlns="http://www.w3.org/2000/svg" xmlns:xlink="http://www.w3.org/1999/xlink" x="0px" y="0px"
	 viewBox="0 0 792 1224" style="enable-background:new 0 0 792 1224;" xml:space="preserve">
<style type="text/css">
	.st0{fill:#231F20;}
	.st1{fill:#231F20;enable-background:new    ;}
</style>
<g>
	<g>
		<g>
			<path class="st0" d="M395.5,603c-4.7,0-8.5,3.8-8.5,8.5s3.8,8.5,8.5,8.5s8.5-3.8,8.5-8.5S400.2,603,395.5,603z M395.5,618
				c-3.6,0-6.5-2.9-6.5-6.5s2.9-6.5,6.5-6.5s6.5,2.9,6.5,6.5S399.1,618,395.5,618z"/>
		</g>
	</g>
	<path class="st1" d="M396,610.7V606h-1v4.7c-0.3,0.2-0.5,0.5-0.5,0.8c0,0.1,0,0.1,0,0.2l-2.3,2.3l0.8,0.8l2.3-2.3
		c0.1,0,0.1,0,0.2,0c0.6,0,1-0.4,1-1C396.5,611.1,396.3,610.8,396,610.7z"/>
</g>
</svg>
