<?xml version="1.0" encoding="UTF-8" standalone="no"?>
<svg width="50px" height="33px" viewBox="0 0 50 33" version="1.1" xmlns="http://www.w3.org/2000/svg" xmlns:xlink="http://www.w3.org/1999/xlink">
    <!-- Generator: Sketch 3.7.1 (28215) - http://www.bohemiancoding.com/sketch -->
    <title>Shape</title>
    <desc>Created with Sketch.</desc>
    <defs></defs>
    <g id="Elements" stroke="none" stroke-width="1" fill="none" fill-rule="evenodd">
        <g id="CANDIDATE" transform="translate(-46.000000, -587.000000)" fill="#3A5898">
            <g id="c1" transform="translate(-1.000000, 218.000000)">
                <g id="Education" transform="translate(0.000000, 337.000000)">
                    <path d="M96.0250924,41.2820392 L72.5568713,32.1056575 C72.1985545,31.9647808 71.8004247,31.9647808 71.4421078,32.1056575 L47.9738868,41.2820392 C47.3869005,41.5117295 47,42.077278 47,42.7081606 C47,43.3390433 47.3858797,43.9045918 47.9738868,44.134282 L54.6451132,46.7425427 L54.6451132,55.5310031 C54.6451132,60.7168991 62.1064742,64.626738 72.0005104,64.626738 C81.8945466,64.626738 89.3559076,60.7168991 89.3559076,55.5310031 L89.3559076,46.7425427 L92.1632332,45.6451336 L92.1632332,53.9262337 C92.1632332,54.7714939 92.8492415,55.4575022 93.6945017,55.4575022 C94.5397619,55.4575022 95.2257702,54.7714939 95.2257702,53.9262337 L95.2257702,44.4466608 L96.0261132,44.1332612 C96.6130995,43.9035709 97,43.3380224 97,42.7071398 C97,42.0762572 96.6120786,41.5117295 96.0250924,41.2820392 L96.0250924,41.2820392 Z M86.2923498,55.5310031 C86.2923498,58.3852876 80.4224872,61.564201 71.9994896,61.564201 C63.576492,61.564201 57.7066294,58.3852876 57.7066294,55.5310031 L57.7066294,47.9389738 L71.4431287,53.3106638 C71.6227975,53.3800813 71.811654,53.4158109 72.0005104,53.4158109 C72.1893669,53.4158109 72.3792442,53.3811021 72.5578922,53.3106638 L86.2923498,47.9399947 L86.2923498,55.5310031 L86.2923498,55.5310031 Z M72.0005104,50.2409808 L52.7361318,42.7081606 L71.9994896,35.1753405 L91.2628473,42.7081606 L72.0005104,50.2409808 L72.0005104,50.2409808 Z" id="Shape"></path>
                </g>
            </g>
        </g>
    </g>
</svg>