<?xml version="1.0" encoding="UTF-8" standalone="no"?>
<svg width="38px" height="38px" viewBox="0 0 38 38" version="1.1" xmlns="http://www.w3.org/2000/svg" xmlns:xlink="http://www.w3.org/1999/xlink">
    <!-- Generator: Sketch 3.7.1 (28215) - http://www.bohemiancoding.com/sketch -->
    <title>Path</title>
    <desc>Created with Sketch.</desc>
    <defs></defs>
    <g id="Elements" stroke="none" stroke-width="1" fill="none" fill-rule="evenodd">
        <g id="CANDIDATE" transform="translate(-354.000000, -448.000000)" fill="#FFFFFF">
            <g id="c1" transform="translate(-1.000000, 218.000000)">
                <g id="Profile" transform="translate(1.000000, 0.000000)">
                    <g id="Contact" transform="translate(72.000000, 220.000000)">
                        <path d="M302.055556,33.2222222 L302.055556,48 L287.277778,48 C284.322222,48 282,45.6777778 282,42.7222222 L282,15.2777778 C282,12.3222222 284.322222,10 287.277778,10 L314.722222,10 C317.677778,10 320,12.3222222 320,15.2777778 L320,42.7222222 C320,45.6777778 317.677778,48 314.722222,48 L307.333333,48 L307.333333,33.2222222 L312.716667,33.2222222 L314.088889,27.9444444 L307.333333,27.9444444 L307.333333,25.3055556 C307.333333,23.8277778 307.861111,22.7722222 310.077778,22.7722222 L313.772222,22.7722222 L313.772222,18.0222222 C313.772222,18.0222222 310.711111,17.4944444 308.811111,17.4944444 C304.8,17.4944444 302.055556,19.7111111 302.055556,24.25 L302.055556,27.9444444 L295.827778,27.9444444 L295.827778,33.2222222 L302.055556,33.2222222 L302.055556,33.2222222 Z" id="Path"></path>
                    </g>
                </g>
            </g>
        </g>
    </g>
</svg>