<?xml version="1.0" encoding="UTF-8" standalone="no"?>
<svg width="38px" height="38px" viewBox="0 0 38 38" version="1.1" xmlns="http://www.w3.org/2000/svg" xmlns:xlink="http://www.w3.org/1999/xlink">
    <!-- Generator: Sketch 3.7.1 (28215) - http://www.bohemiancoding.com/sketch -->
    <title>Shape</title>
    <desc>Created with Sketch.</desc>
    <defs></defs>
    <g id="Elements" stroke="none" stroke-width="1" fill="none" fill-rule="evenodd">
        <g id="CANDIDATE" transform="translate(-596.000000, -448.000000)" fill="#FFFFFF">
            <g id="c1" transform="translate(-1.000000, 218.000000)">
                <g id="Profile" transform="translate(1.000000, 0.000000)">
                    <g id="Contact" transform="translate(72.000000, 220.000000)">
                        <path d="M559.466667,10 L526.533333,10 C525.055556,10 524,11.0555556 524,12.5333333 L524,45.4666667 C524,46.9444444 525.055556,48 526.533333,48 L559.466667,48 C560.944444,48 562,46.9444444 562,45.4666667 L562,12.5333333 C562,11.0555556 560.944444,10 559.466667,10 L559.466667,10 Z M534.555556,40.6666667 L528.222222,40.6666667 L528.222222,23.7777778 L534.555556,23.7777778 L534.555556,40.6666667 L534.555556,40.6666667 Z M531.388889,21.2444444 C529.066667,21.2444444 527.166667,19.5555556 527.166667,17.4444444 C527.166667,15.3333333 529.066667,13.6444444 531.388889,13.6444444 C533.711111,13.6444444 535.611111,15.3333333 535.611111,17.4444444 C535.611111,19.5555556 533.711111,21.2444444 531.388889,21.2444444 L531.388889,21.2444444 Z M557.777778,40.6666667 L551.444444,40.6666667 L551.444444,31.1666667 C551.444444,28.2111111 550.177778,27.3666667 548.277778,27.3666667 C546.588889,27.3666667 545.111111,28.6333333 545.111111,31.1666667 L545.111111,40.6666667 L538.777778,40.6666667 L538.777778,23.7777778 L545.111111,23.7777778 L545.111111,25.2555556 C545.111111,23.5666667 548.066667,22.5111111 550.6,22.5111111 C556.3,22.5111111 557.777778,27.1555556 557.777778,30.9555556 L557.777778,40.6666667 L557.777778,40.6666667 Z" id="Shape"></path>
                    </g>
                </g>
            </g>
        </g>
    </g>
</svg>