<?xml version="1.0" encoding="utf-8"?>
<!-- Generator: Adobe Illustrator 19.0.1, SVG Export Plug-In . SVG Version: 6.00 Build 0)  -->
<svg version="1.1" id="Layer_1" xmlns="http://www.w3.org/2000/svg" xmlns:xlink="http://www.w3.org/1999/xlink" x="0px" y="0px"
	 viewBox="0 0 792 1224" style="enable-background:new 0 0 792 1224;" xml:space="preserve">
<style type="text/css">
	.st0{opacity:0.65;fill-rule:evenodd;clip-rule:evenodd;fill:#010101;}
</style>
<path class="st0" d="M403.8,603h-15.6c-0.7,0-1.2,0.5-1.2,1.2v15.6c0,0.7,0.5,1.2,1.2,1.2h15.6c0.7,0,1.2-0.5,1.2-1.2v-15.6
	C405,603.5,404.5,603,403.8,603z M392,618h-3v-8h3V618z M390.5,608.8c-1.1,0-2-0.8-2-1.8s0.9-1.8,2-1.8s2,0.8,2,1.8
	S391.6,608.8,390.5,608.8z M403,618h-3v-4.5c0-1.4-0.6-1.8-1.5-1.8c-0.8,0-1.5,0.6-1.5,1.8v4.5h-3v-8h3v0.7c0-0.8,1.4-1.3,2.6-1.3
	c2.7,0,3.4,2.2,3.4,4V618z"/>
</svg>
