<?xml version="1.0" encoding="UTF-8" standalone="no"?>
<svg width="28px" height="38px" viewBox="0 0 28 38" version="1.1" xmlns="http://www.w3.org/2000/svg" xmlns:xlink="http://www.w3.org/1999/xlink">
    <!-- Generator: Sketch 3.7.1 (28215) - http://www.bohemiancoding.com/sketch -->
    <title>Fill 14</title>
    <desc>Created with Sketch.</desc>
    <defs></defs>
    <g id="Elements" stroke="none" stroke-width="1" fill="none" fill-rule="evenodd">
        <g id="INTERVIEW-DETAILS" transform="translate(-39.000000, -828.000000)" fill="#4267B2">
            <g id="Interview-Details" transform="translate(0.000000, 236.000000)">
                <path d="M53.0077778,592 C45.2704444,592 39,597.957778 39,605.304667 C39,613.312667 53.0513333,629.311556 53.0513333,629.311556 C53.0513333,629.311556 67.0528889,613.312667 67.0171111,605.304667 C66.9828889,597.957778 60.7435556,592 53.0077778,592 L53.0077778,592 Z M52.986,610.627778 C50.4115556,610.627778 48.324,608.538667 48.324,605.961111 C48.324,603.385111 50.4115556,601.296 52.986,601.296 C55.5588889,601.296 57.6464444,603.385111 57.6464444,605.961111 C57.6464444,608.538667 55.5588889,610.627778 52.986,610.627778 L52.986,610.627778 Z" id="Fill-14"></path>
            </g>
        </g>
    </g>
</svg>