<?xml version="1.0" encoding="utf-8"?>
<!-- Generator: Adobe Illustrator 19.0.1, SVG Export Plug-In . SVG Version: 6.00 Build 0)  -->
<svg version="1.1" id="Layer_1" xmlns="http://www.w3.org/2000/svg" xmlns:xlink="http://www.w3.org/1999/xlink" x="0px" y="0px"
	 viewBox="0 0 792 1224" style="enable-background:new 0 0 792 1224;" xml:space="preserve">
<style type="text/css">
	.st0{fill:#4B4A4A;}
</style>
<path class="st0" d="M380.6,600.4v3l12.9,8.4c0,0,0,0,0.1,0c0.1,0,0.3,0.1,0.5,0.2c0.4,0.1,1,0.3,1.7,0.3c0.8,0,1.6-0.2,2.5-0.8
	c2-1.4,8.4-5.8,12.4-8.6v-2.5H380.6z M395.7,615.1C395.7,615.1,395.7,615.1,395.7,615.1c-2,0-3.5-0.7-3.6-0.8l-0.1,0l-11.5-7.5v15.6
	h30v-16c-4,2.7-9.1,6.2-10.8,7.4C398.4,614.8,397,615.1,395.7,615.1z"/>
</svg>
