<?xml version="1.0" encoding="UTF-8" standalone="no"?>
<svg width="36px" height="45px" viewBox="0 0 36 45" version="1.1" xmlns="http://www.w3.org/2000/svg" xmlns:xlink="http://www.w3.org/1999/xlink">
    <!-- Generator: Sketch 3.7.1 (28215) - http://www.bohemiancoding.com/sketch -->
    <title>blue</title>
    <desc>Created with Sketch.</desc>
    <defs></defs>
    <g id="Elements" stroke="none" stroke-width="1" fill="none" fill-rule="evenodd">
        <g id="UPCOMING-INTERVIEWS" transform="translate(-263.000000, -1251.000000)" fill="#4080FF">
            <g id="Tab-Bar-4-items" transform="translate(0.000000, 1237.000000)">
                <g id="Notes" transform="translate(250.000000, 14.000000)">
                    <path d="M47.263404,0 L14.3793641,0 L13,1.37936409 L13,9.10380299 L13,42.8706359 L14.3793641,44.25 L47.2082294,44.25 L48.5875935,42.8706359 L48.5875935,9.10380299 L48.5875935,1.37936409 L47.263404,0 L47.263404,0 Z M15.7587282,2.75872818 L45.8288653,2.75872818 L45.8288653,7.7244389 L15.7587282,7.7244389 L15.7587282,2.75872818 L15.7587282,2.75872818 Z M15.7587282,41.4912718 L15.7587282,10.4831671 L45.8288653,10.4831671 L45.8288653,41.4912718 L15.7587282,41.4912718 L15.7587282,41.4912718 Z M21.4417082,34.2082294 L40.2010599,34.2082294 L40.2010599,36.9669576 L21.4417082,36.9669576 L21.4417082,34.2082294 Z M21.4417082,20.2490648 L40.2010599,20.2490648 L40.2010599,23.007793 L21.4417082,23.007793 L21.4417082,20.2490648 Z M21.4417082,27.4217581 L40.2010599,27.4217581 L40.2010599,30.1804863 L21.4417082,30.1804863 L21.4417082,27.4217581 Z" id="blue"></path>
                </g>
            </g>
        </g>
    </g>
</svg>