<?xml version="1.0" encoding="UTF-8" standalone="no"?>
<svg width="43px" height="44px" viewBox="0 0 43 44" version="1.1" xmlns="http://www.w3.org/2000/svg" xmlns:xlink="http://www.w3.org/1999/xlink">
    <!-- Generator: Sketch 3.7.1 (28215) - http://www.bohemiancoding.com/sketch -->
    <title>Shape</title>
    <desc>Created with Sketch.</desc>
    <defs></defs>
    <g id="Elements" stroke="none" stroke-width="1" fill="none" fill-rule="evenodd">
        <g id="UPCOMING-INTERVIEWS" transform="translate(-644.000000, -1251.000000)" fill="#90949C">
            <g id="Tab-Bar" transform="translate(0.000000, 1237.000000)">
                <g id="Notifications" transform="translate(597.000000, 14.000000)">
                    <path d="M63.6082153,39.1260011 C63.865579,41.5351737 65.9195914,43.4199982 68.4376027,43.4199982 C70.9607854,43.4199982 73.0098726,41.5351793 73.2696989,39.1260011 L63.6082153,39.1260011 L63.6082153,39.1260011 Z M89.8725973,36.0497202 L47,36.0497202 L47,33.7241454 L47.3634545,33.2792535 C48.3822251,32.0331174 52.5540521,25.9188425 54.3511149,18.7696785 C55.7390822,13.2495088 57.373399,7.54924883 63.3596441,5.47371722 C63.35562,5.38845728 63.3103372,5.30210039 63.3103372,5.21710909 C63.3103372,2.36788019 65.6013301,0 68.4781059,0 C71.3548817,0 73.6458746,2.36788019 73.6458746,5.21710909 C73.6458746,5.31183862 73.6003008,5.40812964 73.594928,5.50322855 C79.4104573,7.58012575 81.082949,13.2432181 82.5110894,18.7286828 C84.3928637,25.9571015 88.5745296,32.135867 89.5091373,33.2797964 L89.8725917,33.7241454 L89.8725917,36.0497202 L89.8725973,36.0497202 Z M51.3799789,33.2262025 L85.5139306,33.2262025 C83.6689713,30.3050674 80.8331801,25.0673177 79.4017656,19.5679117 C77.7932664,13.390786 76.5751362,9.1737098 71.9021202,7.93658998 L69.9707817,7.49567174 C69.9707817,7.49567174 70.5970063,5.67888059 70.5970063,4.9705806 C70.5970063,3.80231682 69.646504,2.85182017 68.4782458,2.85182017 C67.3099877,2.85182017 66.3594854,3.80232242 66.3594854,4.9705806 C66.3594854,5.73786968 66.9483073,7.43043675 66.9483073,7.43043675 C66.9483073,7.43043675 65.6043747,7.76886845 64.9704827,7.93658998 C60.3023863,9.17261845 59.0244106,13.3899688 57.4746654,19.5550673 C56.1041822,25.0061011 53.2822651,30.2452444 51.3799789,33.2262025 L51.3799789,33.2262025 Z" id="Shape"></path>
                </g>
            </g>
        </g>
    </g>
</svg>