<?xml version="1.0" encoding="UTF-8" standalone="no"?>
<svg width="40px" height="44px" viewBox="0 0 40 44" version="1.1" xmlns="http://www.w3.org/2000/svg" xmlns:xlink="http://www.w3.org/1999/xlink">
    <!-- Generator: Sketch 3.7.1 (28215) - http://www.bohemiancoding.com/sketch -->
    <title>Path</title>
    <desc>Created with Sketch.</desc>
    <defs></defs>
    <g id="Elements" stroke="none" stroke-width="1" fill="none" fill-rule="evenodd">
        <g id="UPCOMING-INTERVIEWS" transform="translate(-355.000000, -1249.000000)" fill="#90949C">
            <g id="Tab-Bar" transform="translate(0.000000, 1235.000000)">
                <g id="Interviews" transform="translate(325.000000, 14.000000)">
                    <path d="M64.8335526,44 L49.875,44 L49.875,44 L35.9625,44 C32.0921053,44 30,42.7428571 30,39.4952381 L30,39.4952381 L30,37.4 C30.5230263,31.0095238 33.8703947,30.6952381 43.1802632,25.7714286 C44.6447368,24.9333333 44.6447368,23.7809524 44.9585526,23.047619 C45.1677632,22.5238095 45.2723684,21.1619048 45.2723684,19.9047619 C45.1677632,19.8 45.0631579,19.5904762 44.9585526,19.4857143 C44.3309211,18.647619 44.0171053,17.4952381 43.7032895,15.9238095 L43.7032895,15.9238095 C43.3894737,16.0285714 43.1802632,15.8190476 42.9710526,15.5047619 C42.8664474,15.2952381 42.5526316,14.352381 42.4480263,13.7238095 C42.3434211,13.0952381 42.2388158,12.7809524 42.2388158,12.3619048 C42.2388158,11.8380952 42.4480263,11.3142857 42.6572368,11.2095238 C42.8664474,11.1047619 43.0756579,11.1047619 43.1802632,11.2095238 C43.0756579,10.0571429 43.0756579,9.00952381 43.0756579,8.06666667 C42.9710526,3.14285714 43.4940789,1.67619048 45.9,1.46666667 C46.9460526,0.628571429 48.3059211,2.84217094e-14 49.9796053,2.84217094e-14 C57.9296053,2.84217094e-14 57.5111842,6.91428571 57.5111842,7.12380952 C57.5111842,7.22857143 57.3019737,7.43809524 56.7789474,7.64761905 C56.7789474,8.6952381 56.6743421,9.84761905 56.5697368,11.3142857 L56.9881579,11.3142857 C57.3019737,11.4190476 57.5111842,11.9428571 57.4065789,12.4666667 C57.4065789,12.8857143 57.3019737,13.2 57.1973684,13.8285714 C57.0927632,14.5619048 56.7789474,15.5047619 56.6743421,15.6095238 C56.5697368,15.9238095 56.3605263,16.0285714 56.0467105,16.0285714 C55.7328947,17.8095238 55.3144737,19.0666667 54.6868421,19.9047619 C54.7914474,21.0571429 54.8960526,22.5238095 55.1052632,23.047619 C55.3144737,23.7809524 55.3144737,24.9333333 56.8835526,25.7714286 C66.1934211,30.6952381 69.0177632,30.3809524 69.6453947,37.2952381 C69.6453947,37.8190476 69.75,38.552381 69.75,39.3904762 L69.75,39.3904762 C69.6453947,42.7428571 68.7039474,44 64.8335526,44 L64.8335526,44 Z" id="Path"></path>
                </g>
            </g>
        </g>
    </g>
</svg>