<?xml version="1.0" encoding="UTF-8" standalone="no"?>
<svg width="40px" height="44px" viewBox="0 0 40 44" version="1.1" xmlns="http://www.w3.org/2000/svg" xmlns:xlink="http://www.w3.org/1999/xlink">
    <!-- Generator: Sketch 3.7.1 (28215) - http://www.bohemiancoding.com/sketch -->
    <title>Path</title>
    <desc>Created with Sketch.</desc>
    <defs></defs>
    <g id="Elements" stroke="none" stroke-width="1" fill="none" fill-rule="evenodd">
        <g id="UPCOMING-INTERVIEWS" transform="translate(-355.000000, -1251.000000)" fill="#007AFF">
            <g id="Tab-Bar" transform="translate(0.000000, 1237.000000)">
                <g id="Interviews" transform="translate(320.000000, 14.000000)">
                    <path d="M69.8335526,44 L54.875,44 L54.875,44 L40.9625,44 C37.0921053,44 35,42.7428571 35,39.4952381 L35,39.4952381 L35,37.4 C35.5230263,31.0095238 38.8703947,30.6952381 48.1802632,25.7714286 C49.6447368,24.9333333 49.6447368,23.7809524 49.9585526,23.047619 C50.1677632,22.5238095 50.2723684,21.1619048 50.2723684,19.9047619 C50.1677632,19.8 50.0631579,19.5904762 49.9585526,19.4857143 C49.3309211,18.647619 49.0171053,17.4952381 48.7032895,15.9238095 L48.7032895,15.9238095 C48.3894737,16.0285714 48.1802632,15.8190476 47.9710526,15.5047619 C47.8664474,15.2952381 47.5526316,14.352381 47.4480263,13.7238095 C47.3434211,13.0952381 47.2388158,12.7809524 47.2388158,12.3619048 C47.2388158,11.8380952 47.4480263,11.3142857 47.6572368,11.2095238 C47.8664474,11.1047619 48.0756579,11.1047619 48.1802632,11.2095238 C48.0756579,10.0571429 48.0756579,9.00952381 48.0756579,8.06666667 C47.9710526,3.14285714 48.4940789,1.67619048 50.9,1.46666667 C51.9460526,0.628571429 53.3059211,2.84217094e-14 54.9796053,2.84217094e-14 C62.9296053,2.84217094e-14 62.5111842,6.91428571 62.5111842,7.12380952 C62.5111842,7.22857143 62.3019737,7.43809524 61.7789474,7.64761905 C61.7789474,8.6952381 61.6743421,9.84761905 61.5697368,11.3142857 L61.9881579,11.3142857 C62.3019737,11.4190476 62.5111842,11.9428571 62.4065789,12.4666667 C62.4065789,12.8857143 62.3019737,13.2 62.1973684,13.8285714 C62.0927632,14.5619048 61.7789474,15.5047619 61.6743421,15.6095238 C61.5697368,15.9238095 61.3605263,16.0285714 61.0467105,16.0285714 C60.7328947,17.8095238 60.3144737,19.0666667 59.6868421,19.9047619 C59.7914474,21.0571429 59.8960526,22.5238095 60.1052632,23.047619 C60.3144737,23.7809524 60.3144737,24.9333333 61.8835526,25.7714286 C71.1934211,30.6952381 74.0177632,30.3809524 74.6453947,37.2952381 C74.6453947,37.8190476 74.75,38.552381 74.75,39.3904762 L74.75,39.3904762 C74.6453947,42.7428571 73.7039474,44 69.8335526,44 L69.8335526,44 Z" id="Path"></path>
                </g>
            </g>
        </g>
    </g>
</svg>