<?xml version="1.0" encoding="UTF-8" standalone="no"?>
<svg width="44px" height="36px" viewBox="0 0 44 36" version="1.1" xmlns="http://www.w3.org/2000/svg" xmlns:xlink="http://www.w3.org/1999/xlink">
    <!-- Generator: Sketch 3.7.1 (28215) - http://www.bohemiancoding.com/sketch -->
    <title>Shape</title>
    <desc>Created with Sketch.</desc>
    <defs></defs>
    <g id="Elements" stroke="none" stroke-width="1" fill="none" fill-rule="evenodd">
        <g id="CANDIDATE" transform="translate(-47.000000, -1104.000000)" stroke="#3A5898" fill="#3A5898">
            <g id="c1" transform="translate(-1.000000, 218.000000)">
                <g id="Experience" transform="translate(1.000000, 859.000000)">
                    <path d="M86.7464789,34.8636562 L78.7605634,34.8636562 L78.7605634,31.326398 C78.7605634,29.6938173 77.2816901,28.3333333 75.5070423,28.3333333 L61.9014085,28.3333333 C60.1267606,28.3333333 58.6478873,29.6938173 58.6478873,31.326398 L58.6478873,34.8636562 L51.2535211,34.8636562 C49.4788732,34.8636562 48,36.2241402 48,37.8567209 L48,59.0802703 C48,60.7128511 49.4788732,62.073335 51.2535211,62.073335 L86.7464789,62.073335 C88.5211268,62.073335 90,60.7128511 90,59.0802703 L90,37.8567209 C90,36.2241402 88.5211268,34.8636562 86.7464789,34.8636562 L86.7464789,34.8636562 Z M60.4225352,31.326398 C60.4225352,30.564527 61.0732394,29.9659141 61.9014085,29.9659141 L75.5070423,29.9659141 C76.3352113,29.9659141 76.9859155,30.564527 76.9859155,31.326398 L76.9859155,34.8636562 L60.4225352,34.8636562 L60.4225352,31.326398 L60.4225352,31.326398 Z M88.2253521,59.0802703 C88.2253521,59.8421414 87.5746479,60.4407543 86.7464789,60.4407543 L51.2535211,60.4407543 C50.4253521,60.4407543 49.7746479,59.8421414 49.7746479,59.0802703 L49.7746479,37.8567209 C49.7746479,37.0948499 50.4253521,36.496237 51.2535211,36.496237 L86.7464789,36.496237 C87.5746479,36.496237 88.2253521,37.0948499 88.2253521,37.8567209 L88.2253521,59.0802703 L88.2253521,59.0802703 Z" id="Shape"></path>
                </g>
            </g>
        </g>
    </g>
</svg>