<?xml version="1.0" encoding="UTF-8" standalone="no"?>
<svg width="40px" height="38px" viewBox="0 0 40 38" version="1.1" xmlns="http://www.w3.org/2000/svg" xmlns:xlink="http://www.w3.org/1999/xlink">
    <!-- Generator: Sketch 3.7.1 (28215) - http://www.bohemiancoding.com/sketch -->
    <title>Shape</title>
    <desc>Created with Sketch.</desc>
    <defs></defs>
    <g id="Elements" stroke="none" stroke-width="1" fill="none" fill-rule="evenodd">
        <g id="INTERVIEW-DETAILS" transform="translate(-32.000000, -625.000000)" fill="#4267B2">
            <g id="Interview-Details" transform="translate(0.000000, 236.000000)">
                <path d="M37.559322,420.141243 C40.6327684,420.141243 43.1186441,417.655367 43.1186441,414.581921 C43.1186441,413.316384 42.7118644,412.186441 41.9887006,411.237288 L48.6327684,402.830508 C49.2655367,403.146893 49.8983051,403.372881 50.6214689,403.508475 L50.6214689,415.39548 C48.2259887,416.028249 46.4632768,418.19774 46.4632768,420.774011 C46.4632768,423.847458 48.9491525,426.333333 52.0225989,426.333333 C55.0960452,426.333333 57.5819209,423.847458 57.5819209,420.774011 C57.5819209,418.19774 55.819209,416.028249 53.4237288,415.39548 L53.4237288,403.553672 C54.1016949,403.418079 54.7344633,403.19209 55.3220339,402.920904 L61.9661017,411.372881 C61.2881356,412.276836 60.8813559,413.40678 60.8813559,414.627119 C60.8813559,417.700565 63.3672316,420.186441 66.440678,420.186441 C69.5141243,420.186441 72,417.700565 72,414.627119 C72,411.553672 69.5141243,409.067797 66.440678,409.067797 C65.6271186,409.067797 64.8135593,409.248588 64.1355932,409.564972 L57.5367232,401.158192 C58.6666667,399.847458 59.3446328,398.175141 59.3446328,396.322034 C59.3898305,392.299435 56.0903955,389 52.0225989,389 C47.9548023,389 44.6553672,392.299435 44.6553672,396.367232 C44.6553672,398.175141 45.3333333,399.847458 46.4180791,401.158192 L39.7740113,409.519774 C39.0960452,409.20339 38.3276836,409.067797 37.559322,409.067797 C34.4858757,409.067797 32,411.553672 32,414.627119 C32,417.655367 34.4858757,420.141243 37.559322,420.141243 L37.559322,420.141243 Z M66.4858757,411.870056 C67.9774011,411.870056 69.2429379,413.090395 69.2429379,414.627119 C69.2429379,416.118644 68.0225989,417.384181 66.4858757,417.384181 C64.9943503,417.384181 63.7288136,416.163842 63.7288136,414.627119 C63.7288136,413.090395 64.9491525,411.870056 66.4858757,411.870056 L66.4858757,411.870056 Z M54.779661,420.819209 C54.779661,422.310734 53.559322,423.576271 52.0225989,423.576271 C50.5310734,423.576271 49.2655367,422.355932 49.2655367,420.819209 C49.2655367,419.327684 50.4858757,418.107345 51.9774011,418.062147 L52.0225989,418.062147 L52.0677966,418.062147 C53.559322,418.062147 54.779661,419.282486 54.779661,420.819209 L54.779661,420.819209 Z M52.0225989,391.80226 C54.5084746,391.80226 56.5875706,393.836158 56.5875706,396.367232 C56.5875706,398.898305 54.5084746,400.887006 52.0225989,400.887006 C49.5367232,400.887006 47.4576271,398.853107 47.4576271,396.322034 C47.4576271,393.79096 49.5367232,391.80226 52.0225989,391.80226 L52.0225989,391.80226 Z M37.559322,411.870056 C39.0508475,411.870056 40.3163842,413.090395 40.3163842,414.627119 C40.3163842,416.118644 39.0960452,417.384181 37.559322,417.384181 C36.0677966,417.384181 34.8022599,416.163842 34.8022599,414.627119 C34.8474576,413.090395 36.0677966,411.870056 37.559322,411.870056 L37.559322,411.870056 Z" id="Shape"></path>
            </g>
        </g>
    </g>
</svg>