<?xml version="1.0" encoding="UTF-8" standalone="no"?>
<svg width="34px" height="46px" viewBox="0 0 34 46" version="1.1" xmlns="http://www.w3.org/2000/svg" xmlns:xlink="http://www.w3.org/1999/xlink">
    <!-- Generator: Sketch 3.7.1 (28215) - http://www.bohemiancoding.com/sketch -->
    <title>Shape</title>
    <desc>Created with Sketch.</desc>
    <defs></defs>
    <g id="Elements" stroke="none" stroke-width="1" fill="none" fill-rule="evenodd">
        <g id="CANDIDATE" transform="translate(-116.000000, -445.000000)" fill="#FFFFFF">
            <g id="c1" transform="translate(-1.000000, 218.000000)">
                <g id="Profile" transform="translate(1.000000, 0.000000)">
                    <g id="Contact" transform="translate(72.000000, 220.000000)">
                        <path d="M70.1891892,7 L46.7567568,7 C45.3783784,7 44,8.37837838 44,9.75675676 L44,50.1891892 C44,51.5675676 45.3783784,52.9459459 46.7567568,52.9459459 L75.2432432,52.9459459 C76.6216216,52.9459459 78,51.5675676 78,50.1891892 L78,15.7297297 L70.1891892,7 L70.1891892,7 Z M75.7027027,50.1891892 L75.7027027,50.1891892 L75.2432432,50.6486486 L46.7567568,50.6486486 L46.2972973,50.1891892 L46.2972973,9.75675676 L46.7567568,9.2972973 L68.3513514,9.2972973 L68.3513514,16.1891892 C68.3513514,16.6486486 68.8108108,17.5675676 69.2702703,17.5675676 L75.7027027,17.5675676 L75.7027027,50.1891892 L75.7027027,50.1891892 Z M70.6486486,11.1351351 L74.3243243,14.8108108 L70.6486486,14.8108108 L70.6486486,11.1351351 Z M50.4324324,19.4054054 L70.6486486,19.4054054 C71.1081081,19.4054054 71.5675676,19.8648649 71.5675676,20.3243243 C71.5675676,20.7837838 71.1081081,21.2432432 70.6486486,21.2432432 L50.4324324,21.2432432 C49.972973,21.2432432 49.5135135,20.7837838 49.5135135,20.3243243 C49.5135135,19.8648649 49.972973,19.4054054 50.4324324,19.4054054 Z M71.5675676,26.2972973 C71.5675676,26.7567568 71.1081081,27.2162162 70.6486486,27.2162162 L50.4324324,27.2162162 C49.972973,27.2162162 49.5135135,26.7567568 49.5135135,26.2972973 C49.5135135,25.8378378 49.972973,25.3783784 50.4324324,25.3783784 L70.6486486,25.3783784 C71.1081081,25.3783784 71.5675676,25.8378378 71.5675676,26.2972973 Z M71.5675676,32.2702703 C71.5675676,32.7297297 71.1081081,33.1891892 70.6486486,33.1891892 L50.4324324,33.1891892 C49.972973,33.1891892 49.5135135,32.7297297 49.5135135,32.2702703 C49.5135135,31.8108108 49.972973,31.3513514 50.4324324,31.3513514 L70.6486486,31.3513514 C71.1081081,31.3513514 71.5675676,31.8108108 71.5675676,32.2702703 Z M71.5675676,38.2432432 C71.5675676,38.7027027 71.1081081,39.1621622 70.6486486,39.1621622 L50.4324324,39.1621622 C49.972973,39.1621622 49.5135135,38.7027027 49.5135135,38.2432432 C49.5135135,37.7837838 49.972973,37.3243243 50.4324324,37.3243243 L70.6486486,37.3243243 C71.1081081,37.3243243 71.5675676,37.7837838 71.5675676,38.2432432 Z" id="Shape"></path>
                    </g>
                </g>
            </g>
        </g>
    </g>
</svg>