<?xml version="1.0" encoding="UTF-8" standalone="no"?>
<svg width="50px" height="48px" viewBox="0 0 50 48" version="1.1" xmlns="http://www.w3.org/2000/svg" xmlns:xlink="http://www.w3.org/1999/xlink">
    <!-- Generator: Sketch 3.7.1 (28215) - http://www.bohemiancoding.com/sketch -->
    <title>Shape</title>
    <desc>Created with Sketch.</desc>
    <defs></defs>
    <g id="Elements" stroke="none" stroke-width="1" fill="none" fill-rule="evenodd">
        <g id="INTERVIEW-DETAILS" transform="translate(-28.000000, -415.000000)" fill="#4267B2">
            <g id="Interview-Details" transform="translate(0.000000, 236.000000)">
                <path d="M65.5695769,215.168606 C64.6035624,215.013621 64.5780094,212.374441 64.5780094,212.374441 C64.5780094,212.374441 67.4277244,209.580831 68.0432184,205.823985 C69.7130515,205.823985 70.742393,201.831051 69.07256,200.426747 C69.1419975,198.946339 71.2195675,188.811797 60.7145068,188.811797 C50.20278,188.811797 52.2809056,198.946339 52.3497876,200.426747 C50.6799545,201.830495 51.7126291,205.823985 53.3824621,205.823985 C54.0012891,209.580831 56.8510042,212.374441 56.8510042,212.374441 C56.8510042,212.374441 56.8254512,215.013621 55.8583257,215.168606 C52.7397486,215.662445 41.0820253,220.756936 41.0820253,226.343044 L60.7139513,226.343044 L77.9900017,226.343044 C76.5262591,224.568222 74.2387101,216.931207 65.5695769,215.168606 L65.5695769,215.168606 Z M45.5893524,216.059072 C47.83635,214.673655 50.572743,213.383784 52.8236291,212.613306 C52.0198206,211.466198 51.1187995,209.908021 50.5544115,208.06265 C49.7667125,207.419381 49.129554,206.502806 48.7157065,205.372919 C48.3035255,204.244143 48.14743,202.977603 48.2690845,201.809942 C48.3701855,200.97447 48.608495,200.190659 48.971792,199.506838 C48.7457035,197.123743 48.592941,192.450322 51.6520796,189.040663 C52.8358501,187.719128 54.3362556,186.768668 56.1399642,186.193725 C55.8144412,182.884612 54.1357201,179 47.6291485,179 C37.1207547,179 39.1983248,189.131209 39.2677623,190.60995 C37.5984847,192.015365 38.6211603,196.011077 40.2976593,196.011077 C40.9192638,199.767368 43.7617574,202.559867 43.7617574,202.559867 C43.7617574,202.559867 43.7373154,205.200158 42.7696343,205.355698 C39.6505018,205.84676 28,210.944028 28,216.52847 L38.4078482,222.226789 C38.4078482,222.226789 45.3349334,216.214057 45.5893524,216.059072 L45.5893524,216.059072 Z" id="Shape"></path>
            </g>
        </g>
    </g>
</svg>