<?xml version="1.0" encoding="UTF-8" standalone="no"?>
<svg width="598px" height="56px" viewBox="0 0 598 56" version="1.1" xmlns="http://www.w3.org/2000/svg" xmlns:xlink="http://www.w3.org/1999/xlink">
    <!-- Generator: Sketch 3.7.2 (28276) - http://www.bohemiancoding.com/sketch -->
    <title>search field</title>
    <desc>Created with Sketch.</desc>
    <defs></defs>
    <g id="Elements" stroke="none" stroke-width="1" fill="none" fill-rule="evenodd">
        <g id="SETTINGS" transform="translate(-16.000000, -59.000000)">
            <g id="Nav-Bar">
                <g id="search-field" transform="translate(16.000000, 59.000000)">
                    <rect id="Field" fill="#293E6A" x="0" y="0" width="598" height="56" rx="10"></rect>
                    <text id="Search" font-family="SFUIText-Regular, SF UI Text" font-size="30" font-weight="normal" letter-spacing="-0.48" fill="#8E8E93">
                        <tspan x="62" y="39">Search</tspan>
                    </text>
                    <path d="M45.930167,38.8806707 L37.994873,31.0799942 C39.398873,29.3579942 40,27.395 40,25 C40,19.477 35.523,15 30,15 C24.478,15 20,19.477 20,25 C20,30.522 24.478,34.999 30,34.999 C32.407,34.999 34.2345518,34.4663694 35.9605518,33.0493694 L43.8918457,40.8470459 L45.930167,38.8806707 Z M22,24.998 C22,20.579 25.581,16.997 30,16.997 C34.418,16.997 38,20.579 38,24.998 C38.001,29.417 34.419,32.998 30,32.998 C25.582,32.998 22,29.416 22,24.998 Z" id="Search" fill="#CCCCCC"></path>
                </g>
            </g>
        </g>
    </g>
</svg>