<?xml version="1.0" encoding="utf-8"?>
<!-- Generator: Adobe Illustrator 19.0.1, SVG Export Plug-In . SVG Version: 6.00 Build 0)  -->
<svg version="1.1" id="Layer_1" xmlns="http://www.w3.org/2000/svg" xmlns:xlink="http://www.w3.org/1999/xlink" x="0px" y="0px"
	 viewBox="0 0 792 1224" style="enable-background:new 0 0 792 1224;" xml:space="preserve">
<style type="text/css">
	.st0{fill:#010101;}
</style>
<path class="st0" d="M394.3,621c-6.3,0-6.3-1-6.3-1s0-1,0-2c0-2,3.9-1.9,5-3.2c0.3-0.3,0.6-1.4,0.4-2c0,0-1.1-2.3-1.1-2.9
	c0,0,0,0-0.3,0c-0.6,0-0.9-1.2-0.9-1.9c0-0.6,0.6-0.7,0.6-0.7v-0.6c0.1-2.1,1.7-3.8,3.8-3.8c2.1,0,3.7,1.7,3.7,3.8v0.6
	c0,0,0.6,0,0.6,0.7c0,0.6-0.3,1.9-0.9,1.9c-0.3,0-0.3,0-0.3,0c0,0.6-1.1,2.9-1.1,2.9c-0.2,0.6,0.2,1.7,0.4,2c1.1,1.4,5,1.2,5,3.2
	c0,1,0,2,0,2s0,1-6.2,1H394.3z"/>
</svg>
